<?xml version="1.0" encoding="UTF-8"?>
<svg width="512px" height="512px" viewBox="0 0 512 512" version="1.1" xmlns="http://www.w3.org/2000/svg" xmlns:xlink="http://www.w3.org/1999/xlink">
    <title>Artboard</title>
    <g id="Artboard" stroke="none" stroke-width="1" fill="none" fill-rule="evenodd">
        <circle id="Oval" fill="#000000" cx="255.5" cy="255.5" r="256.5"></circle>
        <g id="id-card-svgrepo-com" transform="translate(96.000000, 66.000000)" fill="#FFFFFF" fill-rule="nonzero">
            <path d="M288.687783,35.9779592 L208.432579,35.9779592 C201.720588,15.0991837 182.234163,0 159.13914,0 C136.044118,0 116.557692,15.0991837 109.845701,35.9779592 L30.3122172,35.9779592 C13.5683258,35.9779592 0,49.56 0,66.3208163 L0,323.657143 C0,340.417959 13.5683258,354 30.3122172,354 L288.687783,354 C305.431674,354 319,340.417959 319,323.657143 L319,66.3208163 C319,49.56 305.431674,35.9779592 288.687783,35.9779592 Z M159.13914,33.7383673 C169.098869,33.7383673 177.182127,41.8297959 177.182127,51.7995918 C177.182127,61.7693878 169.098869,69.8608163 159.13914,69.8608163 C149.179412,69.8608163 141.096154,61.7693878 141.096154,51.7995918 C141.096154,41.8297959 149.179412,33.7383673 159.13914,33.7383673 Z M249.137557,294.253469 C249.137557,299.816327 244.590724,304.367755 239.033484,304.367755 L171.336199,304.367755 L147.808145,304.367755 L80.1108597,304.367755 C74.5536199,304.367755 70.0067873,299.816327 70.0067873,294.253469 L70.0067873,289.557551 C70.0067873,277.203673 75.780543,265.5 85.6680995,258.13102 C105.587557,243.393061 124.64095,233.712245 128.971267,231.617143 C129.548643,231.328163 129.909502,230.750204 129.909502,230.172245 L129.909502,212.761224 C127.23914,208.137551 125.507014,203.224898 124.785294,198.817959 C122.836652,198.673469 120.238462,195.928163 117.495928,186.175102 C113.742986,172.809796 117.712443,170.859184 121.104525,171.148163 C120.454977,169.269796 119.949774,167.463673 119.661086,165.657551 L119.661086,165.657551 C118.434163,159.44449 118.145475,153.592653 119.588914,148.029796 C121.321041,140.588571 125.36267,134.592245 129.83733,130.040816 C132.652036,127.006531 135.899774,124.333469 139.364027,122.166122 C142.178733,120.21551 145.209955,118.553878 148.602036,117.397959 L148.602036,117.397959 C151.200226,116.53102 154.014932,115.953061 156.973982,115.808571 C166.139819,115.013878 173.068326,117.325714 178.04819,120.287755 C185.4819,124.405714 188.296606,129.824082 188.296606,129.824082 C188.296606,129.824082 205.329186,131.052245 199.55543,165.657551 C199.19457,167.463673 198.761538,169.342041 198.111991,171.148163 C201.504072,170.859184 205.545701,172.809796 201.720588,186.175102 C198.978054,195.928163 196.379864,198.673469 194.431222,198.817959 C193.781674,203.224898 192.049548,207.993061 189.307014,212.616735 L189.307014,230.172245 C189.307014,230.822449 189.667873,231.400408 190.245249,231.617143 C194.575566,233.712245 213.628959,243.393061 233.548416,258.13102 C243.435973,265.5 249.209729,277.203673 249.209729,289.557551 L249.209729,294.253469 L249.137557,294.253469 L249.137557,294.253469 Z" id="Shape"></path>
        </g>
    </g>
</svg>